<?xml version="1.0" standalone="no"?>
<!DOCTYPE svg PUBLIC "-//W3C//DTD SVG 20010904//EN"
 "http://www.w3.org/TR/2001/REC-SVG-20010904/DTD/svg10.dtd">
<svg version="1.0" xmlns="http://www.w3.org/2000/svg"
 width="16" height="16" viewBox="0 0 1031.000000 1031.000000"
 preserveAspectRatio="xMidYMid meet">

<g transform="translate(0.000000,1031.000000) scale(0.100000,-0.100000)"
fill="#424242" stroke="none">
<path d="M7300 7900 c-214 -30 -413 -91 -615 -190 -186 -90 -291 -162 -460
-313 -205 -183 -347 -373 -461 -619 -81 -176 -96 -215 -128 -348 -40 -161 -56
-289 -63 -481 -10 -306 34 -538 159 -831 l50 -117 -486 -567 c-531 -620 -524
-610 -513 -721 11 -110 11 -110 487 -517 284 -243 456 -384 486 -398 70 -30
179 -22 237 18 23 16 264 288 536 605 l494 576 76 -18 c145 -34 312 -51 481
-51 185 0 313 17 478 63 147 42 403 142 470 186 31 20 99 63 150 95 90 56 272
209 358 299 261 277 444 667 499 1065 24 170 17 506 -14 656 -19 95 -96 358
-105 358 -2 0 -251 -289 -554 -642 -399 -466 -564 -652 -600 -675 -83 -54
-164 -76 -264 -71 -144 7 -172 25 -608 399 -206 176 -399 344 -428 372 -98 95
-147 242 -125 370 22 128 22 129 610 815 l554 647 -88 18 c-101 21 -501 32
-613 17z"/>
<path d="M3241 7764 c-184 -49 -303 -177 -361 -389 -61 -221 -181 -350 -375
-400 -127 -32 -215 -16 -387 71 -182 91 -265 109 -399 84 -175 -33 -338 -188
-385 -364 -19 -69 -18 -190 2 -257 9 -30 43 -106 75 -169 102 -197 111 -329
35 -485 -71 -145 -159 -213 -355 -275 -185 -59 -271 -116 -342 -228 -65 -102
-89 -281 -55 -407 47 -178 162 -285 375 -351 147 -46 201 -74 267 -136 123
-116 178 -267 154 -425 -7 -51 -25 -99 -74 -193 -79 -155 -96 -211 -96 -315 0
-278 217 -495 494 -495 103 0 165 18 291 85 166 87 253 106 375 81 101 -21
170 -57 244 -127 76 -71 112 -136 160 -290 55 -178 127 -274 256 -339 75 -38
150 -54 245 -53 190 3 350 102 433 268 11 22 36 92 56 156 24 78 50 137 77
179 75 112 201 190 339 210 110 17 191 -3 356 -86 72 -37 137 -65 144 -62 7 2
-42 51 -113 112 -164 141 -219 212 -273 356 -25 68 -28 88 -28 210 -1 123 2
142 27 215 15 44 42 104 60 132 18 29 214 265 436 524 l404 471 -37 116 c-118
378 -140 678 -80 1097 23 160 85 395 134 508 l42 98 -28 40 c-84 122 -253 209
-404 209 -83 0 -161 -24 -292 -90 -128 -65 -205 -90 -281 -90 -76 0 -180 28
-244 66 -127 77 -197 177 -248 354 -33 117 -65 178 -132 250 -116 126 -318
181 -492 134z m381 -1732 c339 -92 606 -361 700 -703 20 -72 23 -108 23 -249
0 -187 -14 -257 -84 -406 -240 -511 -845 -719 -1338 -459 -539 284 -696 972
-333 1453 146 195 346 322 591 377 96 22 340 14 441 -13z"/>
</g>
</svg>
